<svg width="109" height="29" viewBox="0 0 109 29" fill="none" xmlns="http://www.w3.org/2000/svg">
<path d="M0.707275 0L3.18169 26.1006L14.2882 29L25.4231 26.0968L27.9017 0H0.707275ZM22.5195 8.54464H9.48881L9.77209 11.846H22.2362L21.2794 21.6458L14.3045 23.4641L7.31609 21.6516L6.83594 16.6362H10.2537L10.4959 19.1795L14.3045 20.1362L18.0876 19.1704L18.4828 15.0179H6.65606L5.76445 5.33458H22.8169L22.5195 8.54464Z" fill="#1E1E1E"/>
<path d="M47.7407 13.92H55.9487V15.696H47.7407V13.92ZM55.5967 9.648H57.7247V20H55.5967V9.648ZM45.8687 9.648H47.9967V20H45.8687V9.648ZM60.0692 9.648H70.9812V11.424H60.0692V9.648ZM64.4692 11.2H66.5972V20H64.4692V11.2ZM81.0636 18.944H80.0556L86.0076 9.648H88.1356V20H86.0076V12.48L86.5196 12.624L81.7676 20H79.3836L74.6316 12.656L75.1436 12.512V20H73.0156V9.648H75.1436L81.0636 18.944ZM93.5217 9.648V18.224H100.402V20H91.3937V9.648H93.5217Z" fill="#1E1E1E"/>
</svg>
