<svg width="138" height="30" viewBox="0 0 138 30" fill="none" xmlns="http://www.w3.org/2000/svg">
<path d="M16.6708 0C8.00677 0 0.981689 6.89062 0.981689 15.3817C0.981689 22.1786 5.4783 27.9375 11.7119 29.9732C11.7993 29.9914 11.8886 30.0003 11.9781 30C12.5594 30 12.7835 29.5915 12.7835 29.2366C12.7835 28.8683 12.7695 27.904 12.7625 26.6183C12.2436 26.7346 11.7126 26.7953 11.1796 26.7991C8.16086 26.7991 7.47446 24.5558 7.47446 24.5558C6.76004 22.7812 5.73044 22.3058 5.73044 22.3058C4.36465 21.3884 5.72344 21.3616 5.8285 21.3616H5.83551C7.41142 21.4955 8.2379 22.9553 8.2379 22.9553C9.02236 24.2678 10.073 24.6362 11.0115 24.6362C11.6321 24.6243 12.2431 24.4874 12.8045 24.2344C12.9446 23.2433 13.3509 22.567 13.7991 22.1786C10.3181 21.7902 6.65498 20.471 6.65498 14.5781C6.65498 12.8973 7.26433 11.5245 8.26592 10.4531C8.10482 10.0647 7.56551 8.49776 8.42 6.38169C8.53462 6.35547 8.65243 6.34421 8.77021 6.34821C9.33754 6.34821 10.6193 6.5558 12.7345 7.96205C15.3047 7.27454 18.0229 7.27454 20.5931 7.96205C22.7083 6.5558 23.99 6.34821 24.5574 6.34821C24.6751 6.34421 24.793 6.35547 24.9076 6.38169C25.7621 8.49776 25.2228 10.0647 25.0617 10.4531C26.0632 11.5312 26.6726 12.904 26.6726 14.5781C26.6726 20.4844 23.0025 21.7835 19.5074 22.1652C20.0678 22.6406 20.5721 23.5781 20.5721 25.0112C20.5721 27.067 20.551 28.7277 20.551 29.2299C20.551 29.5915 20.7682 30 21.3495 30C21.4436 30.0004 21.5375 29.9914 21.6297 29.9732C27.8703 27.9375 32.3599 22.1719 32.3599 15.3817C32.3599 6.89062 25.3348 0 16.6708 0Z" fill="white"/>
<path d="M56.279 21.208C55.319 21.208 54.4496 21.096 53.671 20.872C52.903 20.648 52.2363 20.312 51.671 19.864C51.1163 19.416 50.6896 18.8613 50.391 18.2C50.0923 17.5387 49.943 16.776 49.943 15.912C49.943 15.0373 50.0976 14.264 50.407 13.592C50.727 12.9093 51.175 12.3333 51.751 11.864C52.3376 11.3947 53.031 11.0427 53.831 10.808C54.6416 10.5627 55.5376 10.44 56.519 10.44C57.6816 10.44 58.6843 10.6053 59.527 10.936C60.3696 11.256 61.031 11.7093 61.511 12.296C62.0016 12.8827 62.279 13.5813 62.343 14.392H60.295C60.1563 13.9653 59.927 13.5973 59.607 13.288C59.2976 12.968 58.887 12.7227 58.375 12.552C57.863 12.3707 57.2443 12.28 56.519 12.28C55.591 12.28 54.7963 12.4293 54.135 12.728C53.4843 13.0267 52.9883 13.448 52.647 13.992C52.3056 14.536 52.135 15.176 52.135 15.912C52.135 16.6267 52.2843 17.2453 52.583 17.768C52.8816 18.28 53.3403 18.6747 53.959 18.952C54.5883 19.2293 55.3883 19.368 56.359 19.368C57.1056 19.368 57.7616 19.272 58.327 19.08C58.903 18.8773 59.383 18.6107 59.767 18.28C60.151 17.9387 60.423 17.56 60.583 17.144L61.415 16.84C61.2763 18.216 60.7536 19.288 59.847 20.056C58.951 20.824 57.7616 21.208 56.279 21.208ZM60.871 21C60.871 20.6693 60.8923 20.2907 60.935 19.864C60.9776 19.4267 61.031 18.9893 61.095 18.552C61.159 18.104 61.2176 17.6933 61.271 17.32H56.535V15.96H62.711V21H60.871ZM66.056 10.648H68.184V21H66.056V10.648ZM70.8275 10.648H81.7395V12.424H70.8275V10.648ZM75.2275 12.2H77.3555V21H75.2275V12.2ZM85.9583 14.92H94.1663V16.696H85.9583V14.92ZM93.8143 10.648H95.9423V21H93.8143V10.648ZM84.0863 10.648H86.2143V21H84.0863V10.648ZM108.703 16.424V10.648H110.831V16.648C110.831 17.3307 110.73 17.928 110.527 18.44C110.335 18.952 110.058 19.384 109.695 19.736C109.332 20.088 108.906 20.376 108.415 20.6C107.935 20.8133 107.407 20.968 106.831 21.064C106.266 21.16 105.668 21.208 105.039 21.208C104.388 21.208 103.77 21.16 103.183 21.064C102.596 20.968 102.058 20.8133 101.567 20.6C101.087 20.376 100.671 20.088 100.319 19.736C99.9668 19.384 99.6895 18.952 99.4868 18.44C99.2948 17.928 99.1988 17.3307 99.1988 16.648V10.648H101.327V16.424C101.327 17.2347 101.487 17.8533 101.807 18.28C102.127 18.696 102.564 18.984 103.119 19.144C103.684 19.2933 104.324 19.368 105.039 19.368C105.732 19.368 106.351 19.2933 106.895 19.144C107.45 18.984 107.887 18.696 108.207 18.28C108.538 17.8533 108.703 17.2347 108.703 16.424ZM114.093 21V10.648H120.061C121.447 10.648 122.498 10.8827 123.213 11.352C123.938 11.8107 124.301 12.4987 124.301 13.416C124.301 14.0027 124.157 14.4667 123.869 14.808C123.581 15.1387 123.17 15.384 122.637 15.544C122.114 15.704 121.495 15.8053 120.781 15.848L120.845 15.736C121.367 15.7467 121.858 15.784 122.317 15.848C122.786 15.912 123.197 16.0293 123.549 16.2C123.901 16.3707 124.178 16.6107 124.381 16.92C124.583 17.2187 124.685 17.6133 124.685 18.104C124.685 18.744 124.514 19.2773 124.173 19.704C123.831 20.12 123.357 20.4347 122.749 20.648C122.141 20.8613 121.437 20.9787 120.637 21H114.093ZM116.221 19.24H120.413C121.085 19.24 121.602 19.1333 121.965 18.92C122.327 18.696 122.509 18.344 122.509 17.864C122.509 17.512 122.402 17.256 122.189 17.096C121.975 16.936 121.693 16.84 121.341 16.808C120.989 16.7653 120.61 16.744 120.205 16.744H116.221V19.24ZM116.221 15.032H119.981C120.653 15.032 121.17 14.936 121.533 14.744C121.895 14.5413 122.077 14.2 122.077 13.72C122.077 13.24 121.895 12.904 121.533 12.712C121.17 12.5093 120.69 12.408 120.093 12.408H116.221V15.032Z" fill="white"/>
</svg>
