<svg width="91" height="29" viewBox="0 0 91 29" fill="none" xmlns="http://www.w3.org/2000/svg">
<path d="M0.460571 0L2.7854 26.1013L13.1986 29L23.6424 26.0968L25.9672 0H0.460571ZM19.7686 21.6788L13.2186 23.4978L6.67849 21.6697L6.23013 16.6362H9.43573L9.66357 19.197L13.2232 20.1783L13.2318 20.1964L16.7835 19.2352L17.1581 15.0826H9.69346L9.42776 11.846H17.4418L17.7307 8.54464H5.50877L5.24307 5.37277H21.2233L19.7686 21.6788Z" fill="#1E1E1E"/>
<path d="M55.6101 16.272C55.5141 17.104 55.2208 17.8133 54.7301 18.4C54.2394 18.9867 53.5728 19.4347 52.7301 19.744C51.8874 20.0533 50.8848 20.208 49.7221 20.208C48.7514 20.208 47.8608 20.096 47.0501 19.872C46.2501 19.648 45.5568 19.312 44.9701 18.864C44.3941 18.416 43.9461 17.8613 43.6261 17.2C43.3061 16.528 43.1461 15.744 43.1461 14.848C43.1461 13.952 43.3061 13.168 43.6261 12.496C43.9461 11.824 44.3941 11.264 44.9701 10.816C45.5568 10.3573 46.2501 10.016 47.0501 9.792C47.8608 9.55733 48.7514 9.44 49.7221 9.44C50.8848 9.44 51.8874 9.6 52.7301 9.92C53.5834 10.24 54.2554 10.6987 54.7461 11.296C55.2368 11.8827 55.5248 12.5973 55.6101 13.44H53.4981C53.3594 12.992 53.1248 12.608 52.7941 12.288C52.4741 11.9573 52.0581 11.7067 51.5461 11.536C51.0341 11.3653 50.4261 11.28 49.7221 11.28C48.8474 11.28 48.0794 11.4187 47.4181 11.696C46.7568 11.9627 46.2448 12.3627 45.8821 12.896C45.5194 13.4187 45.3381 14.0693 45.3381 14.848C45.3381 15.616 45.5194 16.2613 45.8821 16.784C46.2448 17.3067 46.7568 17.7067 47.4181 17.984C48.0794 18.2507 48.8474 18.384 49.7221 18.384C50.4261 18.384 51.0288 18.2987 51.5301 18.128C52.0421 17.9573 52.4581 17.712 52.7781 17.392C53.1088 17.072 53.3488 16.6987 53.4981 16.272H55.6101ZM57.7983 16.512H59.9583C60.001 16.8747 60.1663 17.2053 60.4543 17.504C60.753 17.792 61.1423 18.0213 61.6223 18.192C62.1023 18.352 62.641 18.432 63.2383 18.432C63.7823 18.432 64.2303 18.3733 64.5823 18.256C64.9343 18.1387 65.1957 17.9733 65.3663 17.76C65.537 17.5467 65.6223 17.2907 65.6223 16.992C65.6223 16.704 65.5157 16.4853 65.3023 16.336C65.089 16.176 64.753 16.048 64.2943 15.952C63.8357 15.8453 63.233 15.7387 62.4863 15.632C61.8997 15.5467 61.345 15.4293 60.8223 15.28C60.2997 15.12 59.8357 14.9173 59.4303 14.672C59.0357 14.4267 58.721 14.128 58.4863 13.776C58.2623 13.4133 58.1503 12.9867 58.1503 12.496C58.1503 11.888 58.321 11.3547 58.6623 10.896C59.0143 10.4373 59.5317 10.08 60.2143 9.824C60.897 9.568 61.7343 9.44 62.7263 9.44C64.2197 9.44 65.3663 9.76 66.1663 10.4C66.977 11.0293 67.3717 11.8987 67.3503 13.008H65.2703C65.2277 12.3787 64.961 11.9253 64.4703 11.648C63.9903 11.3707 63.3823 11.232 62.6463 11.232C61.9637 11.232 61.3983 11.3333 60.9503 11.536C60.513 11.7387 60.2943 12.0853 60.2943 12.576C60.2943 12.768 60.3477 12.9387 60.4543 13.088C60.561 13.2267 60.7423 13.3493 60.9983 13.456C61.2543 13.5627 61.601 13.664 62.0383 13.76C62.4757 13.856 63.0197 13.952 63.6703 14.048C64.2783 14.1333 64.8277 14.2507 65.3183 14.4C65.8197 14.5387 66.2463 14.7253 66.5983 14.96C66.961 15.184 67.2383 15.472 67.4303 15.824C67.6223 16.176 67.7183 16.608 67.7183 17.12C67.7183 17.7493 67.553 18.2987 67.2223 18.768C66.9023 19.2267 66.401 19.584 65.7183 19.84C65.0463 20.096 64.1717 20.224 63.0943 20.224C62.3263 20.224 61.649 20.144 61.0623 19.984C60.4757 19.8133 59.969 19.5893 59.5423 19.312C59.1157 19.0347 58.769 18.7307 58.5023 18.4C58.2357 18.0693 58.0437 17.7387 57.9263 17.408C57.8197 17.0773 57.777 16.7787 57.7983 16.512ZM69.7077 16.512H71.8677C71.9104 16.8747 72.0757 17.2053 72.3637 17.504C72.6624 17.792 73.0517 18.0213 73.5317 18.192C74.0117 18.352 74.5504 18.432 75.1477 18.432C75.6917 18.432 76.1397 18.3733 76.4917 18.256C76.8437 18.1387 77.1051 17.9733 77.2757 17.76C77.4464 17.5467 77.5317 17.2907 77.5317 16.992C77.5317 16.704 77.4251 16.4853 77.2117 16.336C76.9984 16.176 76.6624 16.048 76.2037 15.952C75.7451 15.8453 75.1424 15.7387 74.3957 15.632C73.8091 15.5467 73.2544 15.4293 72.7317 15.28C72.2091 15.12 71.7451 14.9173 71.3397 14.672C70.9451 14.4267 70.6304 14.128 70.3957 13.776C70.1717 13.4133 70.0597 12.9867 70.0597 12.496C70.0597 11.888 70.2304 11.3547 70.5717 10.896C70.9237 10.4373 71.4411 10.08 72.1237 9.824C72.8064 9.568 73.6437 9.44 74.6357 9.44C76.1291 9.44 77.2757 9.76 78.0757 10.4C78.8864 11.0293 79.2811 11.8987 79.2597 13.008H77.1797C77.1371 12.3787 76.8704 11.9253 76.3797 11.648C75.8997 11.3707 75.2917 11.232 74.5557 11.232C73.8731 11.232 73.3077 11.3333 72.8597 11.536C72.4224 11.7387 72.2037 12.0853 72.2037 12.576C72.2037 12.768 72.2571 12.9387 72.3637 13.088C72.4704 13.2267 72.6517 13.3493 72.9077 13.456C73.1637 13.5627 73.5104 13.664 73.9477 13.76C74.3851 13.856 74.9291 13.952 75.5797 14.048C76.1877 14.1333 76.7371 14.2507 77.2277 14.4C77.7291 14.5387 78.1557 14.7253 78.5077 14.96C78.8704 15.184 79.1477 15.472 79.3397 15.824C79.5317 16.176 79.6277 16.608 79.6277 17.12C79.6277 17.7493 79.4624 18.2987 79.1317 18.768C78.8117 19.2267 78.3104 19.584 77.6277 19.84C76.9557 20.096 76.0811 20.224 75.0037 20.224C74.2357 20.224 73.5584 20.144 72.9717 19.984C72.3851 19.8133 71.8784 19.5893 71.4517 19.312C71.0251 19.0347 70.6784 18.7307 70.4117 18.4C70.1451 18.0693 69.9531 17.7387 69.8357 17.408C69.7291 17.0773 69.6864 16.7787 69.7077 16.512Z" fill="#1E1E1E"/>
</svg>
