<svg width="175" height="30" viewBox="0 0 175 30" fill="none" xmlns="http://www.w3.org/2000/svg">
<path d="M26.1501 6.5671L15.2215 0.325196C14.8289 0.112077 14.3849 0 13.933 0C13.4812 0 13.0371 0.112077 12.6446 0.325196L1.71527 6.56643C1.3214 6.79628 0.996448 7.11897 0.77179 7.50335C0.547133 7.88772 0.430367 8.32077 0.432776 8.76067V21.2264C0.430413 21.6665 0.547179 22.0999 0.771816 22.4846C0.996452 22.8692 1.32138 23.1923 1.71527 23.4226L4.58118 25.0524L4.59735 25.0611C6.04437 25.7662 6.59843 25.7662 7.24038 25.7662C9.5002 25.7662 10.9043 24.3735 10.9043 22.131V10.0443C10.9056 9.89337 10.8441 9.74814 10.7331 9.64043C10.6221 9.53273 10.4708 9.47135 10.3123 9.46976H8.73872C8.58027 9.47135 8.42896 9.53273 8.31797 9.64043C8.20698 9.74814 8.14539 9.89337 8.1467 10.0443V22.131C8.15242 22.304 8.11109 22.4755 8.0267 22.6289C7.94231 22.7822 7.81774 22.9122 7.66506 23.0062C7.25022 23.2472 6.64765 23.1963 5.96773 22.8622L3.22135 21.288C3.21083 21.2812 3.20225 21.272 3.19636 21.2612C3.19048 21.2505 3.18747 21.2385 3.1876 21.2264V8.93677C3.18805 8.92264 3.19205 8.90882 3.19927 8.89647C3.20649 8.88412 3.21671 8.8736 3.22908 8.86579L13.9052 2.63862C13.9132 2.63485 13.922 2.63288 13.9309 2.63288C13.9398 2.63288 13.9486 2.63485 13.9566 2.63862L24.6391 8.86579C24.6512 8.87424 24.6611 8.88533 24.6678 8.89814C24.6745 8.91096 24.6779 8.92512 24.6777 8.93945V21.2264C24.678 21.2391 24.6753 21.2517 24.6698 21.2633C24.6644 21.2748 24.6562 21.2851 24.6461 21.2933L13.9545 27.3632C13.9362 27.3692 13.9164 27.3692 13.8982 27.3632L11.168 25.8191C11.0869 25.7686 10.9933 25.7395 10.8966 25.7347C10.7999 25.7299 10.7036 25.7495 10.6175 25.7916L10.5936 25.805C9.83981 26.2302 9.63731 26.3407 8.93841 26.5831C8.8245 26.6226 8.55662 26.717 8.53341 26.9694C8.51021 27.2219 8.76474 27.4013 8.99114 27.5265L12.6403 29.6605C13.0291 29.8823 13.4738 29.9996 13.927 30H13.9678C14.4097 29.9934 14.842 29.8763 15.2215 29.6605L26.1501 23.4246C26.5437 23.1936 26.8685 22.8701 27.093 22.4852C27.3176 22.1002 27.4345 21.6668 27.4326 21.2264V8.76067C27.4348 8.3209 27.3179 7.888 27.0933 7.50377C26.8686 7.11954 26.5438 6.79694 26.1501 6.5671Z" fill="white"/>
<path d="M17.3502 19.2184C14.6955 19.2184 14.1295 18.5247 13.9615 17.4048C13.9426 17.2715 13.8731 17.1489 13.7657 17.0595C13.6583 16.97 13.5201 16.9196 13.3763 16.9174H11.9667C11.8078 16.9206 11.6567 16.9825 11.5465 17.0895C11.4363 17.1966 11.376 17.3401 11.3786 17.4887C11.3786 18.4594 11.7431 21.6279 17.3531 21.6279C19.0887 21.6279 20.5325 21.2484 21.5271 20.53C22.5216 19.8116 23.0542 18.7663 23.0542 17.5206C23.0542 15.0206 21.3099 14.3362 17.8749 13.8888C14.3829 13.4347 14.3829 13.2037 14.3829 12.6977C14.3829 12.3335 14.3829 11.4806 16.9074 11.4806C18.7036 11.4806 19.6654 11.693 19.973 12.8122C20.0002 12.9363 20.0719 13.0479 20.1763 13.1287C20.2806 13.2094 20.4113 13.2544 20.5468 13.2563H21.9614C22.0447 13.2555 22.127 13.2381 22.2026 13.2053C22.2782 13.1724 22.3455 13.1249 22.3999 13.0658C22.5087 12.9471 22.5629 12.793 22.5508 12.6371C22.3679 10.2702 20.5176 9.06976 16.9096 9.06976C13.6304 9.06976 11.6734 10.4513 11.6734 12.7649C11.6734 15.3016 13.7016 16.0186 16.7487 16.3156C20.3083 16.6598 20.3083 17.1618 20.3083 17.6052C20.3104 18.2963 20.0036 19.2184 17.3502 19.2184Z" fill="white"/>
<path d="M50.8843 16.952V10.648H53.0123V17.096C53.0123 17.64 52.911 18.1573 52.7083 18.648C52.5163 19.1387 52.223 19.576 51.8283 19.96C51.4443 20.3333 50.9643 20.6267 50.3883 20.84C49.823 21.0533 49.1616 21.16 48.4043 21.16C47.8176 21.16 47.247 21.0853 46.6923 20.936C46.1483 20.7867 45.6576 20.5627 45.2203 20.264C44.783 19.9547 44.431 19.5707 44.1643 19.112C43.8976 18.6427 43.7536 18.0933 43.7323 17.464H45.7483C45.8656 18.072 46.1643 18.536 46.6443 18.856C47.135 19.1653 47.7216 19.32 48.4043 19.32C48.991 19.32 49.4656 19.2187 49.8283 19.016C50.191 18.8027 50.4576 18.52 50.6283 18.168C50.799 17.8053 50.8843 17.4 50.8843 16.952ZM57.683 18.744V16.968H64.531V18.744H57.683ZM55.107 21L59.971 10.648H62.275L67.187 21H64.867L60.611 11.672H61.635L57.411 21H55.107ZM71.9842 21L67.4082 10.648H69.7602L73.6802 19.992H72.9442L76.8482 10.648H79.1682L74.6402 21H71.9842ZM81.8612 18.744V16.968H88.7092V18.744H81.8612ZM79.2852 21L84.1492 10.648H86.4532L91.3652 21H89.0452L84.7892 11.672H85.8132L81.5892 21H79.2852ZM92.8415 17.512H95.0015C95.0442 17.8747 95.2095 18.2053 95.4975 18.504C95.7962 18.792 96.1855 19.0213 96.6655 19.192C97.1455 19.352 97.6842 19.432 98.2815 19.432C98.8255 19.432 99.2735 19.3733 99.6255 19.256C99.9775 19.1387 100.239 18.9733 100.41 18.76C100.58 18.5467 100.666 18.2907 100.666 17.992C100.666 17.704 100.559 17.4853 100.346 17.336C100.132 17.176 99.7962 17.048 99.3375 16.952C98.8789 16.8453 98.2762 16.7387 97.5295 16.632C96.9429 16.5467 96.3882 16.4293 95.8655 16.28C95.3429 16.12 94.8789 15.9173 94.4735 15.672C94.0789 15.4267 93.7642 15.128 93.5295 14.776C93.3055 14.4133 93.1935 13.9867 93.1935 13.496C93.1935 12.888 93.3642 12.3547 93.7055 11.896C94.0575 11.4373 94.5749 11.08 95.2575 10.824C95.9402 10.568 96.7775 10.44 97.7695 10.44C99.2629 10.44 100.41 10.76 101.21 11.4C102.02 12.0293 102.415 12.8987 102.394 14.008H100.314C100.271 13.3787 100.004 12.9253 99.5135 12.648C99.0335 12.3707 98.4255 12.232 97.6895 12.232C97.0069 12.232 96.4415 12.3333 95.9935 12.536C95.5562 12.7387 95.3375 13.0853 95.3375 13.576C95.3375 13.768 95.3909 13.9387 95.4975 14.088C95.6042 14.2267 95.7855 14.3493 96.0415 14.456C96.2975 14.5627 96.6442 14.664 97.0815 14.76C97.5189 14.856 98.0629 14.952 98.7135 15.048C99.3215 15.1333 99.8709 15.2507 100.362 15.4C100.863 15.5387 101.29 15.7253 101.642 15.96C102.004 16.184 102.282 16.472 102.474 16.824C102.666 17.176 102.762 17.608 102.762 18.12C102.762 18.7493 102.596 19.2987 102.266 19.768C101.946 20.2267 101.444 20.584 100.762 20.84C100.09 21.096 99.2149 21.224 98.1375 21.224C97.3695 21.224 96.6922 21.144 96.1055 20.984C95.5189 20.8133 95.0122 20.5893 94.5855 20.312C94.1589 20.0347 93.8122 19.7307 93.5455 19.4C93.2789 19.0693 93.0869 18.7387 92.9695 18.408C92.8629 18.0773 92.8202 17.7787 92.8415 17.512ZM117.519 17.272C117.423 18.104 117.13 18.8133 116.639 19.4C116.148 19.9867 115.482 20.4347 114.639 20.744C113.796 21.0533 112.794 21.208 111.631 21.208C110.66 21.208 109.77 21.096 108.959 20.872C108.159 20.648 107.466 20.312 106.879 19.864C106.303 19.416 105.855 18.8613 105.535 18.2C105.215 17.528 105.055 16.744 105.055 15.848C105.055 14.952 105.215 14.168 105.535 13.496C105.855 12.824 106.303 12.264 106.879 11.816C107.466 11.3573 108.159 11.016 108.959 10.792C109.77 10.5573 110.66 10.44 111.631 10.44C112.794 10.44 113.796 10.6 114.639 10.92C115.492 11.24 116.164 11.6987 116.655 12.296C117.146 12.8827 117.434 13.5973 117.519 14.44H115.407C115.268 13.992 115.034 13.608 114.703 13.288C114.383 12.9573 113.967 12.7067 113.455 12.536C112.943 12.3653 112.335 12.28 111.631 12.28C110.756 12.28 109.988 12.4187 109.327 12.696C108.666 12.9627 108.154 13.3627 107.791 13.896C107.428 14.4187 107.247 15.0693 107.247 15.848C107.247 16.616 107.428 17.2613 107.791 17.784C108.154 18.3067 108.666 18.7067 109.327 18.984C109.988 19.2507 110.756 19.384 111.631 19.384C112.335 19.384 112.938 19.2987 113.439 19.128C113.951 18.9573 114.367 18.712 114.687 18.392C115.018 18.072 115.258 17.6987 115.407 17.272H117.519ZM120.395 21V10.648H127.419C128.219 10.648 128.912 10.76 129.499 10.984C130.096 11.1973 130.56 11.5387 130.891 12.008C131.222 12.4667 131.387 13.0587 131.387 13.784C131.387 14.2747 131.302 14.6907 131.131 15.032C130.96 15.3733 130.72 15.6507 130.411 15.864C130.112 16.0773 129.766 16.2427 129.371 16.36C128.976 16.4667 128.555 16.536 128.107 16.568L127.883 16.44C128.63 16.4507 129.243 16.5147 129.723 16.632C130.203 16.7387 130.56 16.9413 130.795 17.24C131.04 17.528 131.163 17.96 131.163 18.536V21H129.035V18.68C129.035 18.2853 128.966 17.9813 128.827 17.768C128.688 17.544 128.438 17.3893 128.075 17.304C127.723 17.2187 127.211 17.176 126.539 17.176H122.523V21H120.395ZM122.523 15.512H127.419C128.016 15.512 128.47 15.368 128.779 15.08C129.099 14.792 129.259 14.4027 129.259 13.912C129.259 13.4427 129.099 13.0853 128.779 12.84C128.47 12.5947 128.016 12.472 127.419 12.472H122.523V15.512ZM134.718 10.648H136.846V21H134.718V10.648ZM142.241 17.64V15.944H146.977C147.543 15.944 147.991 15.7947 148.321 15.496C148.652 15.1867 148.817 14.76 148.817 14.216C148.817 13.6507 148.652 13.2187 148.321 12.92C147.991 12.6213 147.543 12.472 146.977 12.472H142.497V21H140.369V10.648H146.785C147.361 10.648 147.9 10.7173 148.401 10.856C148.913 10.9947 149.356 11.208 149.729 11.496C150.113 11.784 150.412 12.152 150.625 12.6C150.839 13.048 150.945 13.5867 150.945 14.216C150.945 14.8347 150.839 15.3627 150.625 15.8C150.412 16.2373 150.113 16.5947 149.729 16.872C149.356 17.1387 148.913 17.336 148.401 17.464C147.9 17.5813 147.361 17.64 146.785 17.64H142.241ZM152.836 10.648H163.748V12.424H152.836V10.648ZM157.236 12.2H159.364V21H157.236V12.2Z" fill="white"/>
</svg>
