<svg width="107" height="29" viewBox="0 0 107 29" fill="none" xmlns="http://www.w3.org/2000/svg">
<path d="M46.89 8.648V10.424H38.922V13.208H45.45V14.872H38.922V19H36.794V8.648H46.89ZM49.7574 8.648H51.8854V19H49.7574V8.648ZM61.3929 19.208C60.4329 19.208 59.5636 19.096 58.7849 18.872C58.0169 18.648 57.3502 18.312 56.7849 17.864C56.2302 17.416 55.8036 16.8613 55.5049 16.2C55.2062 15.5387 55.0569 14.776 55.0569 13.912C55.0569 13.0373 55.2116 12.264 55.5209 11.592C55.8409 10.9093 56.2889 10.3333 56.8649 9.864C57.4516 9.39467 58.1449 9.04267 58.9449 8.808C59.7556 8.56267 60.6516 8.44 61.6329 8.44C62.7956 8.44 63.7982 8.60533 64.6409 8.936C65.4836 9.256 66.1449 9.70933 66.6249 10.296C67.1156 10.8827 67.3929 11.5813 67.4569 12.392H65.4089C65.2702 11.9653 65.0409 11.5973 64.7209 11.288C64.4116 10.968 64.0009 10.7227 63.4889 10.552C62.9769 10.3707 62.3582 10.28 61.6329 10.28C60.7049 10.28 59.9102 10.4293 59.2489 10.728C58.5982 11.0267 58.1022 11.448 57.7609 11.992C57.4196 12.536 57.2489 13.176 57.2489 13.912C57.2489 14.6267 57.3982 15.2453 57.6969 15.768C57.9956 16.28 58.4542 16.6747 59.0729 16.952C59.7022 17.2293 60.5022 17.368 61.4729 17.368C62.2196 17.368 62.8756 17.272 63.4409 17.08C64.0169 16.8773 64.4969 16.6107 64.8809 16.28C65.2649 15.9387 65.5369 15.56 65.6969 15.144L66.5289 14.84C66.3902 16.216 65.8676 17.288 64.9609 18.056C64.0649 18.824 62.8756 19.208 61.3929 19.208ZM65.9849 19C65.9849 18.6693 66.0062 18.2907 66.0489 17.864C66.0916 17.4267 66.1449 16.9893 66.2089 16.552C66.2729 16.104 66.3316 15.6933 66.3849 15.32H61.6489V13.96H67.8249V19H65.9849ZM78.9139 17.944H77.9059L83.8579 8.648H85.9859V19H83.8579V11.48L84.3699 11.624L79.6179 19H77.2339L72.4819 11.656L72.9939 11.512V19H70.8659V8.648H72.9939L78.9139 17.944ZM90.86 16.744V14.968H97.708V16.744H90.86ZM88.284 19L93.148 8.648H95.452L100.364 19H98.044L93.788 9.672H94.812L90.588 19H88.284Z" fill="white"/>
<path d="M14.7085 9.375C16.0089 9.375 17.2559 8.88114 18.1754 8.00206C19.0948 7.12299 19.6114 5.9307 19.6114 4.6875C19.6114 3.4443 19.0948 2.25201 18.1754 1.37294C17.2559 0.49386 16.0089 0 14.7085 0H4.90285C3.60253 0 2.35547 0.49386 1.43601 1.37294C0.51655 2.25201 2.18265e-06 3.4443 2.18265e-06 4.6875C2.18265e-06 5.9307 0.51655 7.12299 1.43601 8.00206C2.35547 8.88114 3.60253 9.375 4.90285 9.375C3.60253 9.375 2.35547 9.86886 1.43601 10.7479C0.51655 11.627 2.18265e-06 12.8193 2.18265e-06 14.0625C2.18265e-06 15.3057 0.51655 16.498 1.43601 17.3771C2.35547 18.2561 3.60253 18.75 4.90285 18.75C3.93316 18.75 2.98524 19.0249 2.17897 19.54C1.3727 20.0551 0.744294 20.7871 0.373209 21.6437C0.00212432 22.5002 -0.0949683 23.4427 0.094209 24.352C0.283386 25.2613 0.750337 26.0965 1.43601 26.7521C2.12169 27.4076 2.99529 27.8541 3.94635 28.0349C4.89741 28.2158 5.88321 28.123 6.77908 27.7682C7.67496 27.4134 8.44068 26.8126 8.97941 26.0417C9.51814 25.2709 9.80569 24.3646 9.80569 23.4375V9.375H14.7085Z" fill="white"/>
<path d="M14.7085 18.75C17.4163 18.75 19.6114 16.6513 19.6114 14.0625C19.6114 11.4737 17.4163 9.375 14.7085 9.375C12.0007 9.375 9.80566 11.4737 9.80566 14.0625C9.80566 16.6513 12.0007 18.75 14.7085 18.75Z" fill="white"/>
</svg>
