<svg width="134" height="30" viewBox="0 0 134 30" fill="none" xmlns="http://www.w3.org/2000/svg">
<path d="M29.0246 9.72342C28.6496 9.60099 28.2718 9.48697 27.8915 9.38136C27.9545 9.13604 28.0127 8.88931 28.066 8.64118C28.9241 4.65287 28.363 1.4398 26.4481 0.382089C24.6146 -0.632861 21.6077 0.424846 18.5743 2.95381C18.2761 3.20334 17.9839 3.46035 17.6979 3.72484C17.5072 3.54914 17.3116 3.37717 17.1112 3.20895C13.9319 0.504752 10.7452 -0.634263 8.83251 0.426949C6.999 1.444 6.45408 4.46432 7.22636 8.24445C7.30361 8.61828 7.3904 8.99048 7.48672 9.36104C7.04841 9.47979 6.61381 9.61069 6.18346 9.75356C2.4607 10.9977 0.0800781 12.9484 0.0800781 14.9713C0.0800781 17.0615 2.63525 19.1573 6.51716 20.4281C6.83203 20.5304 7.14984 20.6255 7.47058 20.7133C7.36644 21.1101 7.27427 21.5112 7.19409 21.9168C6.46069 25.6318 7.03274 28.5806 8.86258 29.5914C10.7526 30.635 13.9231 29.5626 17.0136 26.9762C17.2581 26.7715 17.5026 26.5554 17.747 26.3278C18.056 26.6133 18.3738 26.8904 18.7005 27.1591C21.6927 29.625 24.6476 30.621 26.4745 29.6075C28.363 28.5603 28.9769 25.3921 28.1797 21.5376C28.1186 21.2432 28.0482 20.9428 27.9685 20.6362C28.1914 20.5732 28.4097 20.508 28.6234 20.4407C32.6571 19.1601 35.2849 17.0895 35.2849 14.9734C35.2834 12.9407 32.8265 10.9774 29.0246 9.72342ZM19.5637 4.04026C22.1621 1.87367 24.5911 1.01854 25.6986 1.62975C26.8772 2.28092 27.3355 4.90661 26.5948 8.35029C26.5459 8.57459 26.4931 8.79819 26.4364 9.02108C24.8857 8.68398 23.3132 8.44607 21.7294 8.30894C20.8226 7.06049 19.8285 5.87204 18.754 4.7517C19.017 4.50778 19.2864 4.27063 19.5622 4.04026H19.5637ZM10.4746 16.6998C10.7929 17.2886 11.1256 17.8701 11.4728 18.4444C11.8263 19.0304 12.1947 19.6077 12.578 20.1764C11.4882 20.0632 10.4053 19.8964 9.33343 19.6767C9.64439 18.715 10.0272 17.7162 10.4746 16.6998ZM10.4746 13.3122C10.0346 12.3176 9.66199 11.3391 9.35616 10.3942C10.3609 10.179 11.4317 10.0031 12.5479 9.86991C12.1739 10.4279 11.814 10.994 11.4684 11.5683C11.1227 12.1426 10.7907 12.7239 10.4724 13.3122H10.4746ZM11.274 15.0063C11.7375 14.0825 12.2367 13.1764 12.7716 12.2881C13.306 11.4003 13.8749 10.5328 14.4782 9.68557C15.5255 9.60987 16.5992 9.56991 17.684 9.56991C18.7687 9.56991 19.849 9.60987 20.8955 9.68627C21.4925 10.5316 22.058 11.3961 22.5919 12.2797C23.1258 13.1634 23.6316 14.0652 24.1093 14.9853C23.638 15.9124 23.1334 16.8222 22.5956 17.7148C22.0621 18.6026 21.4998 19.4727 20.9087 20.325C19.8636 20.3951 18.7819 20.4337 17.6818 20.4337C16.5816 20.4337 15.5204 20.4007 14.4944 20.3369C13.8866 19.4869 13.3131 18.6157 12.7738 17.7232C12.2345 16.8306 11.7339 15.925 11.2718 15.0063H11.274ZM23.8973 18.4346C24.2518 17.8468 24.5921 17.2512 24.9182 16.6479C25.3653 17.6167 25.7599 18.6068 26.1005 19.6143C25.0161 19.8477 23.9196 20.0266 22.8156 20.1505C23.1881 19.5855 23.5487 19.0136 23.8973 18.4346ZM24.9036 13.3129C24.5789 12.7218 24.2413 12.1377 23.8907 11.5606C23.5485 10.9914 23.1918 10.4293 22.8207 9.87412C23.9436 10.0101 25.0209 10.1909 26.0308 10.4117C25.7061 11.3962 25.3299 12.3645 24.9036 13.3129ZM17.6986 5.78137C18.431 6.54616 19.1225 7.34577 19.7705 8.17716C18.3844 8.11408 16.9972 8.11408 15.6092 8.17716C16.2934 7.31221 16.9938 6.50964 17.6986 5.78137ZM9.58938 1.67251C10.7672 1.01924 13.3715 1.95288 16.1167 4.28488C16.292 4.43418 16.4687 4.59049 16.6447 4.7524C15.5647 5.87258 14.5636 7.05999 13.648 8.30683C12.0677 8.44292 10.4984 8.67705 8.94986 9.00777C8.86038 8.66384 8.77971 8.31758 8.70783 7.96898C8.0441 4.72857 8.48341 2.28582 9.58938 1.67251ZM7.87249 19.3255C7.57912 19.2456 7.28943 19.1589 7.0034 19.0655C5.28724 18.5047 3.86957 17.7729 2.89635 16.976C2.02506 16.2617 1.58355 15.5489 1.58355 14.9713C1.58355 13.744 3.4948 12.1781 6.68217 11.1162C7.08261 10.983 7.48647 10.8613 7.89375 10.751C8.36713 12.2049 8.94043 13.6274 9.60992 15.0092C8.93245 16.41 8.35206 17.8519 7.87249 19.3255ZM16.0228 25.8911C14.6565 27.0351 13.2879 27.846 12.0815 28.2547C10.9975 28.6213 10.1343 28.6318 9.61285 28.3437C8.50248 27.7304 8.04044 25.3619 8.67043 22.1853C8.74524 21.8115 8.8308 21.4376 8.92712 21.0638C10.4911 21.3858 12.0763 21.6057 13.6715 21.722C14.596 22.9753 15.6054 24.1695 16.6931 25.2967C16.4746 25.5021 16.2509 25.6998 16.0228 25.8911ZM17.7404 24.2636C17.0276 23.5269 16.3162 22.7117 15.6224 21.8355C16.2966 21.8608 16.9831 21.8734 17.6818 21.8734C18.399 21.8734 19.109 21.8587 19.8086 21.8285C19.1629 22.6733 18.4727 23.486 17.7404 24.2636ZM26.8728 26.2675C26.663 27.3498 26.2413 28.0717 25.7199 28.3605C24.6102 28.9759 22.2377 28.1762 19.6795 26.0671C19.3862 25.8259 19.0928 25.5673 18.7943 25.296C19.8609 24.1644 20.8466 22.9654 21.7448 21.7073C23.3489 21.5774 24.9417 21.342 26.5119 21.0028C26.5838 21.2804 26.6474 21.5524 26.7026 21.8187C27.0554 23.522 27.106 25.0626 26.8728 26.2675ZM28.1489 19.0732C27.9567 19.1341 27.7587 19.193 27.5578 19.2505C27.0654 17.7897 26.4697 16.3626 25.7749 14.979C26.4437 13.6139 27.016 12.2075 27.4881 10.7692C27.8482 10.8694 28.198 10.9746 28.5347 11.086C31.7924 12.1599 33.78 13.7496 33.78 14.9713C33.78 16.275 31.6333 17.9671 28.1489 19.0732Z" fill="white"/>
<path d="M17.6724 17.561C18.2783 17.5629 18.8711 17.3928 19.3759 17.0724C19.8806 16.7519 20.2745 16.2955 20.5078 15.7608C20.741 15.2262 20.803 14.6374 20.6861 14.069C20.5691 13.5006 20.2783 12.9782 19.8506 12.568C19.4228 12.1577 18.8774 11.878 18.2833 11.7643C17.6892 11.6506 17.0732 11.708 16.5132 11.9292C15.9532 12.1505 15.4745 12.5256 15.1377 13.0071C14.8009 13.4886 14.6211 14.0549 14.6211 14.6342C14.6203 15.0179 14.6985 15.3981 14.8515 15.753C15.0044 16.1078 15.2289 16.4303 15.5123 16.7022C15.7957 16.974 16.1323 17.1897 16.503 17.3371C16.8736 17.4845 17.271 17.5605 17.6724 17.561Z" fill="white"/>
<path d="M52.5631 21V10.648H59.5871C60.3871 10.648 61.0804 10.76 61.6671 10.984C62.2644 11.1973 62.7284 11.5387 63.0591 12.008C63.3897 12.4667 63.5551 13.0587 63.5551 13.784C63.5551 14.2747 63.4697 14.6907 63.2991 15.032C63.1284 15.3733 62.8884 15.6507 62.5791 15.864C62.2804 16.0773 61.9337 16.2427 61.5391 16.36C61.1444 16.4667 60.7231 16.536 60.2751 16.568L60.0511 16.44C60.7977 16.4507 61.4111 16.5147 61.8911 16.632C62.3711 16.7387 62.7284 16.9413 62.9631 17.24C63.2084 17.528 63.3311 17.96 63.3311 18.536V21H61.2031V18.68C61.2031 18.2853 61.1337 17.9813 60.9951 17.768C60.8564 17.544 60.6057 17.3893 60.2431 17.304C59.8911 17.2187 59.3791 17.176 58.7071 17.176H54.6911V21H52.5631ZM54.6911 15.512H59.5871C60.1844 15.512 60.6377 15.368 60.9471 15.08C61.2671 14.792 61.4271 14.4027 61.4271 13.912C61.4271 13.4427 61.2671 13.0853 60.9471 12.84C60.6377 12.5947 60.1844 12.472 59.5871 12.472H54.6911V15.512ZM68.7098 16.68V19.224H76.6938V21H66.5818V10.648H76.6778V12.424H68.7098V15H75.2378V16.68H68.7098ZM81.2947 18.744V16.968H88.1427V18.744H81.2947ZM78.7187 21L83.5827 10.648H85.8867L90.7987 21H88.4787L84.2227 11.672H85.2467L81.0227 21H78.7187ZM104.668 17.272C104.572 18.104 104.279 18.8133 103.788 19.4C103.297 19.9867 102.631 20.4347 101.788 20.744C100.945 21.0533 99.9427 21.208 98.7801 21.208C97.8094 21.208 96.9187 21.096 96.1081 20.872C95.3081 20.648 94.6147 20.312 94.0281 19.864C93.4521 19.416 93.0041 18.8613 92.6841 18.2C92.3641 17.528 92.2041 16.744 92.2041 15.848C92.2041 14.952 92.3641 14.168 92.6841 13.496C93.0041 12.824 93.4521 12.264 94.0281 11.816C94.6147 11.3573 95.3081 11.016 96.1081 10.792C96.9187 10.5573 97.8094 10.44 98.7801 10.44C99.9427 10.44 100.945 10.6 101.788 10.92C102.641 11.24 103.313 11.6987 103.804 12.296C104.295 12.8827 104.583 13.5973 104.668 14.44H102.556C102.417 13.992 102.183 13.608 101.852 13.288C101.532 12.9573 101.116 12.7067 100.604 12.536C100.092 12.3653 99.4841 12.28 98.7801 12.28C97.9054 12.28 97.1374 12.4187 96.4761 12.696C95.8147 12.9627 95.3027 13.3627 94.9401 13.896C94.5774 14.4187 94.3961 15.0693 94.3961 15.848C94.3961 16.616 94.5774 17.2613 94.9401 17.784C95.3027 18.3067 95.8147 18.7067 96.4761 18.984C97.1374 19.2507 97.9054 19.384 98.7801 19.384C99.4841 19.384 100.087 19.2987 100.588 19.128C101.1 18.9573 101.516 18.712 101.836 18.392C102.167 18.072 102.407 17.6987 102.556 17.272H104.668ZM106.32 10.648H117.232V12.424H106.32V10.648ZM110.72 12.2H112.848V21H110.72V12.2Z" fill="white"/>
</svg>
