<svg width="996" height="185" viewBox="0 0 996 185" fill="none" xmlns="http://www.w3.org/2000/svg">
<path d="M17.5372 122.2V102.7H70.5772C80.9772 102.7 89.3839 99.4933 95.7972 93.08C102.384 86.4933 105.677 78 105.677 67.6C105.677 56.8533 102.384 48.36 95.7972 42.12C89.3839 35.7067 80.9772 32.5 70.5772 32.5H21.6972V182H0.897217V13H70.5772C78.3772 13 85.6572 14.2133 92.4172 16.64C99.1772 19.0667 105.071 22.62 110.097 27.3C115.297 31.98 119.284 37.7 122.057 44.46C125.004 51.22 126.477 58.9333 126.477 67.6C126.477 76.2667 125.004 83.98 122.057 90.74C119.284 97.5 115.297 103.22 110.097 107.9C105.071 112.58 99.1772 116.133 92.4172 118.56C85.6572 120.987 78.3772 122.2 70.5772 122.2H17.5372Z" fill="url(#paint0_linear_132_40)"/>
<path d="M206.535 184.6C195.442 184.6 185.042 181.913 175.335 176.54C165.628 171.167 157.742 163.453 151.675 153.4C145.782 143.173 142.835 131.127 142.835 117.26C142.835 103.393 145.782 91.4333 151.675 81.38C157.742 71.1533 165.628 63.2667 175.335 57.72C185.042 52.1733 195.442 49.4 206.535 49.4C217.628 49.4 227.942 52.1733 237.475 57.72C247.182 63.2667 254.982 71.1533 260.875 81.38C266.768 91.4333 269.715 103.393 269.715 117.26C269.715 131.127 266.768 143.173 260.875 153.4C254.982 163.453 247.182 171.167 237.475 176.54C227.942 181.913 217.628 184.6 206.535 184.6ZM206.535 165.1C213.815 165.1 220.662 163.28 227.075 159.64C233.488 156 238.688 150.627 242.675 143.52C246.835 136.24 248.915 127.487 248.915 117.26C248.915 107.033 246.835 98.3667 242.675 91.26C238.688 83.98 233.488 78.4333 227.075 74.62C220.662 70.8067 213.815 68.9 206.535 68.9C199.255 68.9 192.322 70.8067 185.735 74.62C179.322 78.26 174.035 83.72 169.875 91C165.715 98.1067 163.635 106.86 163.635 117.26C163.635 127.487 165.628 136.24 169.615 143.52C173.775 150.627 179.148 156 185.735 159.64C192.322 163.28 199.255 165.1 206.535 165.1Z" fill="url(#paint1_linear_132_40)"/>
<path d="M296.111 52H316.911V182H296.111V52ZM358.511 71.5C349.671 71.5 342.218 73.7533 336.151 78.26C330.258 82.5933 325.578 87.9667 322.111 94.38C318.818 100.62 316.651 106.687 315.611 112.58L315.351 97.5C315.351 95.94 315.698 93.34 316.391 89.7C317.084 86.06 318.384 81.9867 320.291 77.48C322.198 72.8 324.711 68.38 327.831 64.22C331.124 59.8867 335.284 56.3333 340.311 53.56C345.338 50.7867 351.404 49.4 358.511 49.4V71.5Z" fill="url(#paint2_linear_132_40)"/>
<path d="M372.831 52H449.271V71.5H372.831V52ZM400.651 18.2H421.451V182H400.651V18.2Z" fill="url(#paint3_linear_132_40)"/>
<path d="M464.745 52H541.185V71.5H464.745V52ZM532.085 0H544.045V20.8H532.085C527.752 20.6267 523.765 21.2333 520.125 22.62C516.659 24.0067 513.885 26.4333 511.805 29.9C509.725 33.1933 508.685 37.96 508.685 44.2V182H487.885V44.2C487.885 33.8 489.705 25.3933 493.345 18.98C497.159 12.3933 502.359 7.62667 508.945 4.68C515.705 1.56 523.419 0 532.085 0Z" fill="url(#paint4_linear_132_40)"/>
<path d="M617.863 184.6C606.77 184.6 596.37 181.913 586.663 176.54C576.956 171.167 569.07 163.453 563.003 153.4C557.11 143.173 554.163 131.127 554.163 117.26C554.163 103.393 557.11 91.4333 563.003 81.38C569.07 71.1533 576.956 63.2667 586.663 57.72C596.37 52.1733 606.77 49.4 617.863 49.4C628.956 49.4 639.27 52.1733 648.803 57.72C658.51 63.2667 666.31 71.1533 672.203 81.38C678.096 91.4333 681.043 103.393 681.043 117.26C681.043 131.127 678.096 143.173 672.203 153.4C666.31 163.453 658.51 171.167 648.803 176.54C639.27 181.913 628.956 184.6 617.863 184.6ZM617.863 165.1C625.143 165.1 631.99 163.28 638.403 159.64C644.816 156 650.016 150.627 654.003 143.52C658.163 136.24 660.243 127.487 660.243 117.26C660.243 107.033 658.163 98.3667 654.003 91.26C650.016 83.98 644.816 78.4333 638.403 74.62C631.99 70.8067 625.143 68.9 617.863 68.9C610.583 68.9 603.65 70.8067 597.063 74.62C590.65 78.26 585.363 83.72 581.203 91C577.043 98.1067 574.963 106.86 574.963 117.26C574.963 127.487 576.956 136.24 580.943 143.52C585.103 150.627 590.476 156 597.063 159.64C603.65 163.28 610.583 165.1 617.863 165.1Z" fill="url(#paint5_linear_132_40)"/>
<path d="M710.039 0H730.839V182H710.039V0Z" fill="url(#paint6_linear_132_40)"/>
<path d="M793.101 0V25.22H766.061V0H793.101ZM769.181 52H789.981V182H769.181V52Z" fill="url(#paint7_linear_132_40)"/>
<path d="M881.925 184.6C870.832 184.6 860.432 181.913 850.726 176.54C841.019 171.167 833.132 163.453 827.065 153.4C821.172 143.173 818.226 131.127 818.226 117.26C818.226 103.393 821.172 91.4333 827.065 81.38C833.132 71.1533 841.019 63.2667 850.726 57.72C860.432 52.1733 870.832 49.4 881.925 49.4C893.019 49.4 903.332 52.1733 912.865 57.72C922.572 63.2667 930.372 71.1533 936.266 81.38C942.159 91.4333 945.106 103.393 945.106 117.26C945.106 131.127 942.159 143.173 936.266 153.4C930.372 163.453 922.572 171.167 912.865 176.54C903.332 181.913 893.019 184.6 881.925 184.6ZM881.925 165.1C889.205 165.1 896.052 163.28 902.466 159.64C908.879 156 914.079 150.627 918.065 143.52C922.225 136.24 924.305 127.487 924.305 117.26C924.305 107.033 922.225 98.3667 918.065 91.26C914.079 83.98 908.879 78.4333 902.466 74.62C896.052 70.8067 889.205 68.9 881.925 68.9C874.645 68.9 867.712 70.8067 861.125 74.62C854.712 78.26 849.426 83.72 845.266 91C841.106 98.1067 839.026 106.86 839.026 117.26C839.026 127.487 841.019 136.24 845.005 143.52C849.165 150.627 854.539 156 861.125 159.64C867.712 163.28 874.645 165.1 881.925 165.1Z" fill="url(#paint8_linear_132_40)"/>
<path d="M996.003 156.52V182H968.963V156.52H996.003Z" fill="url(#paint9_linear_132_40)"/>
<defs>
<linearGradient id="paint0_linear_132_40" x1="-42" y1="97.5" x2="628.18" y2="97.5" gradientUnits="userSpaceOnUse">
<stop stop-color="#053F96"/>
<stop offset="0.315" stop-color="#3F67F5"/>
<stop offset="1" stop-color="#C5D4EB"/>
</linearGradient>
<linearGradient id="paint1_linear_132_40" x1="-42" y1="97.5" x2="628.18" y2="97.5" gradientUnits="userSpaceOnUse">
<stop stop-color="#053F96"/>
<stop offset="0.315" stop-color="#3F67F5"/>
<stop offset="1" stop-color="#C5D4EB"/>
</linearGradient>
<linearGradient id="paint2_linear_132_40" x1="-42" y1="97.5" x2="628.18" y2="97.5" gradientUnits="userSpaceOnUse">
<stop stop-color="#053F96"/>
<stop offset="0.315" stop-color="#3F67F5"/>
<stop offset="1" stop-color="#C5D4EB"/>
</linearGradient>
<linearGradient id="paint3_linear_132_40" x1="-42" y1="97.5" x2="628.18" y2="97.5" gradientUnits="userSpaceOnUse">
<stop stop-color="#053F96"/>
<stop offset="0.315" stop-color="#3F67F5"/>
<stop offset="1" stop-color="#C5D4EB"/>
</linearGradient>
<linearGradient id="paint4_linear_132_40" x1="-42" y1="97.5" x2="628.18" y2="97.5" gradientUnits="userSpaceOnUse">
<stop stop-color="#053F96"/>
<stop offset="0.315" stop-color="#3F67F5"/>
<stop offset="1" stop-color="#C5D4EB"/>
</linearGradient>
<linearGradient id="paint5_linear_132_40" x1="-42" y1="97.5" x2="628.18" y2="97.5" gradientUnits="userSpaceOnUse">
<stop stop-color="#053F96"/>
<stop offset="0.315" stop-color="#3F67F5"/>
<stop offset="1" stop-color="#C5D4EB"/>
</linearGradient>
<linearGradient id="paint6_linear_132_40" x1="-42" y1="97.5" x2="628.18" y2="97.5" gradientUnits="userSpaceOnUse">
<stop stop-color="#053F96"/>
<stop offset="0.315" stop-color="#3F67F5"/>
<stop offset="1" stop-color="#C5D4EB"/>
</linearGradient>
<linearGradient id="paint7_linear_132_40" x1="-42" y1="97.5" x2="628.18" y2="97.5" gradientUnits="userSpaceOnUse">
<stop stop-color="#053F96"/>
<stop offset="0.315" stop-color="#3F67F5"/>
<stop offset="1" stop-color="#C5D4EB"/>
</linearGradient>
<linearGradient id="paint8_linear_132_40" x1="-42" y1="97.5" x2="628.18" y2="97.5" gradientUnits="userSpaceOnUse">
<stop stop-color="#053F96"/>
<stop offset="0.315" stop-color="#3F67F5"/>
<stop offset="1" stop-color="#C5D4EB"/>
</linearGradient>
<linearGradient id="paint9_linear_132_40" x1="-42" y1="97.5" x2="628.18" y2="97.5" gradientUnits="userSpaceOnUse">
<stop stop-color="#053F96"/>
<stop offset="0.315" stop-color="#3F67F5"/>
<stop offset="1" stop-color="#C5D4EB"/>
</linearGradient>
</defs>
</svg>
