<svg width="187" height="23" viewBox="0 0 187 23" fill="none" xmlns="http://www.w3.org/2000/svg">
<path d="M0 5.16326C0 2.31167 2.31167 0 5.16325 0C8.01484 0 10.3265 2.31167 10.3265 5.16326V10.3265H5.16325C2.31167 10.3265 0 8.01485 0 5.16326Z" fill="white"/>
<path d="M0 12.6735H5.16325C8.01484 12.6735 10.3265 14.9851 10.3265 17.8367C10.3265 20.6883 8.01484 23 5.16325 23C2.31167 23 0 20.6883 0 17.8367V12.6735Z" fill="white"/>
<path d="M12.6735 0C18.3767 0 23 4.62334 23 10.3265H12.6735V0Z" fill="white"/>
<path d="M12.6735 12.6735H23C23 18.3767 18.3767 23 12.6735 23V12.6735Z" fill="white"/>
<path d="M35.0074 13.5586H38.0018C38.061 14.063 38.2902 14.523 38.6894 14.9384C39.1035 15.339 39.6432 15.658 40.3086 15.8954C40.974 16.1179 41.7208 16.2292 42.5489 16.2292C43.303 16.2292 43.9241 16.1476 44.4121 15.9844C44.9001 15.8212 45.2623 15.5912 45.4989 15.2945C45.7355 14.9978 45.8538 14.6417 45.8538 14.2263C45.8538 13.8257 45.706 13.5215 45.4102 13.3138C45.1145 13.0912 44.6487 12.9132 44.0128 12.7797C43.377 12.6313 42.5415 12.4829 41.5064 12.3346C40.6931 12.2159 39.9242 12.0527 39.1996 11.8449C38.475 11.6224 37.8318 11.3405 37.2698 10.9992C36.7227 10.658 36.2865 10.2426 35.9612 9.75296C35.6506 9.24851 35.4954 8.65504 35.4954 7.97254C35.4954 7.12685 35.732 6.38501 36.2052 5.74702C36.6931 5.10904 37.4103 4.61201 38.3567 4.25593C39.3031 3.89984 40.4639 3.7218 41.8391 3.7218C43.9093 3.7218 45.4989 4.16691 46.608 5.05711C47.7318 5.93248 48.2789 7.14168 48.2494 8.68471H45.3659C45.3067 7.80934 44.937 7.17877 44.2568 6.79302C43.5914 6.40726 42.7485 6.21438 41.7282 6.21438C40.7818 6.21438 39.9981 6.35533 39.377 6.63723C38.7707 6.91913 38.4676 7.40133 38.4676 8.08382C38.4676 8.35088 38.5415 8.58827 38.6894 8.79599C38.8373 8.98886 39.0887 9.15949 39.4436 9.30786C39.7985 9.45622 40.279 9.59717 40.8853 9.7307C41.4916 9.86423 42.2457 9.99777 43.1478 10.1313C43.9906 10.25 44.7522 10.4132 45.4324 10.6209C46.1274 10.8138 46.7189 11.0734 47.2069 11.3998C47.7096 11.7114 48.0941 12.112 48.3603 12.6016C48.6264 13.0912 48.7595 13.6921 48.7595 14.4043C48.7595 15.2797 48.5303 16.0438 48.0719 16.6966C47.6283 17.3346 46.9333 17.8316 45.9869 18.1877C45.0553 18.5438 43.8428 18.7218 42.3493 18.7218C41.2846 18.7218 40.3456 18.6105 39.5323 18.388C38.719 18.1506 38.0166 17.839 37.4251 17.4533C36.8336 17.0675 36.353 16.6447 35.9834 16.1847C35.6137 15.7248 35.3475 15.2648 35.1848 14.8049C35.037 14.3449 34.9778 13.9295 35.0074 13.5586Z" fill="white"/>
<path d="M64.5376 12.0452V4.01112H67.4876V12.3568C67.4876 13.3064 67.3471 14.1372 67.0662 14.8494C66.8 15.5616 66.4155 16.1625 65.9128 16.6521C65.41 17.1417 64.8185 17.5423 64.1383 17.8538C63.4729 18.1506 62.7409 18.3657 61.9424 18.4992C61.1587 18.6328 60.3306 18.6995 59.4582 18.6995C58.5561 18.6995 57.6985 18.6328 56.8852 18.4992C56.0719 18.3657 55.3251 18.1506 54.6449 17.8538C53.9795 17.5423 53.4028 17.1417 52.9148 16.6521C52.4268 16.1625 52.0424 15.5616 51.7614 14.8494C51.4952 14.1372 51.3621 13.3064 51.3621 12.3568V4.01112H54.3122V12.0452C54.3122 13.1728 54.534 14.0334 54.9776 14.6268C55.4212 15.2055 56.0275 15.6061 56.7965 15.8286C57.5802 16.0363 58.4674 16.1402 59.4582 16.1402C60.4193 16.1402 61.277 16.0363 62.0311 15.8286C62.8001 15.6061 63.4063 15.2055 63.85 14.6268C64.3084 14.0334 64.5376 13.1728 64.5376 12.0452Z" fill="white"/>
<path d="M82.0573 16.9414H80.6599L88.9112 4.01112H91.8613V18.4102H88.9112V7.95029L89.621 8.15059L83.0333 18.4102H79.7283L73.1406 8.1951L73.8504 7.9948V18.4102H70.9004V4.01112H73.8504L82.0573 16.9414Z" fill="white"/>
<path d="M97.5092 15.2722V12.8019H107.003V15.2722H97.5092ZM93.9381 18.4102L100.681 4.01112H103.875L110.685 18.4102H107.468L101.568 5.43545H102.988L97.1322 18.4102H93.9381Z" fill="white"/>
<path d="M127.322 15.4725L126.39 15.8509V4.01112H129.34V18.4102H126.39L114.79 7.03783L115.721 6.65949V18.4102H112.771V4.01112H115.721L127.322 15.4725Z" fill="white"/>
<path d="M146.321 4.01112C147.933 4.01112 149.279 4.204 150.358 4.58975C151.438 4.97551 152.295 5.50222 152.931 6.16987C153.582 6.82269 154.04 7.57937 154.306 8.4399C154.587 9.30044 154.728 10.2055 154.728 11.155C154.728 12.1046 154.573 13.0171 154.262 13.8924C153.966 14.7678 153.486 15.5467 152.82 16.2292C152.17 16.8969 151.305 17.431 150.225 17.8316C149.16 18.2174 147.859 18.4102 146.321 18.4102H138.114V4.01112H146.321ZM141.064 15.8731H146.255C147.319 15.8731 148.199 15.747 148.894 15.4948C149.604 15.2277 150.166 14.8717 150.58 14.4265C150.994 13.9814 151.29 13.477 151.467 12.9132C151.645 12.3494 151.733 11.7633 151.733 11.155C151.733 10.5467 151.645 9.96809 151.467 9.41913C151.29 8.87017 150.994 8.38056 150.58 7.95029C150.166 7.52002 149.604 7.17877 148.894 6.92655C148.199 6.67432 147.319 6.54821 146.255 6.54821H141.064V15.8731Z" fill="white"/>
<path d="M159.135 15.2722V12.8019H168.628V15.2722H159.135ZM155.564 18.4102L162.307 4.01112H165.501L172.31 18.4102H169.094L163.194 5.43545H164.613L158.758 18.4102H155.564Z" fill="white"/>
<path d="M173.248 13.5586H176.242C176.301 14.063 176.531 14.523 176.93 14.9384C177.344 15.339 177.884 15.658 178.549 15.8954C179.215 16.1179 179.961 16.2292 180.789 16.2292C181.544 16.2292 182.165 16.1476 182.653 15.9844C183.141 15.8212 183.503 15.5912 183.739 15.2945C183.976 14.9978 184.094 14.6417 184.094 14.2263C184.094 13.8257 183.946 13.5215 183.651 13.3138C183.355 13.0912 182.889 12.9132 182.253 12.7797C181.617 12.6313 180.782 12.4829 179.747 12.3346C178.934 12.2159 178.165 12.0527 177.44 11.8449C176.715 11.6224 176.072 11.3405 175.51 10.9992C174.963 10.658 174.527 10.2426 174.202 9.75296C173.891 9.24851 173.736 8.65504 173.736 7.97254C173.736 7.12685 173.972 6.38501 174.446 5.74702C174.934 5.10904 175.651 4.61201 176.597 4.25593C177.544 3.89984 178.704 3.7218 180.08 3.7218C182.15 3.7218 183.739 4.16691 184.848 5.05711C185.972 5.93248 186.519 7.14168 186.49 8.68471H183.606C183.547 7.80934 183.178 7.17877 182.497 6.79302C181.832 6.40726 180.989 6.21438 179.969 6.21438C179.022 6.21438 178.239 6.35533 177.617 6.63723C177.011 6.91913 176.708 7.40133 176.708 8.08382C176.708 8.35088 176.782 8.58827 176.93 8.79599C177.078 8.98886 177.329 9.15949 177.684 9.30786C178.039 9.45622 178.52 9.59717 179.126 9.7307C179.732 9.86423 180.486 9.99777 181.388 10.1313C182.231 10.25 182.993 10.4132 183.673 10.6209C184.368 10.8138 184.959 11.0734 185.447 11.3998C185.95 11.7114 186.335 12.112 186.601 12.6016C186.867 13.0912 187 13.6921 187 14.4043C187 15.2797 186.771 16.0438 186.312 16.6966C185.869 17.3346 185.174 17.8316 184.227 18.1877C183.296 18.5438 182.083 18.7218 180.59 18.7218C179.525 18.7218 178.586 18.6105 177.773 18.388C176.959 18.1506 176.257 17.839 175.666 17.4533C175.074 17.0675 174.594 16.6447 174.224 16.1847C173.854 15.7248 173.588 15.2648 173.425 14.8049C173.277 14.3449 173.218 13.9295 173.248 13.5586Z" fill="white"/>
</svg>
